<?xml version="1.0" encoding="utf-8"?>
<!-- Generator: Adobe Illustrator 21.0.0, SVG Export Plug-In . SVG Version: 6.00 Build 0)  -->
<svg version="1.1" xmlns="http://www.w3.org/2000/svg" xmlns:xlink="http://www.w3.org/1999/xlink" x="0px" y="0px"
	 viewBox="0 0 612 792" style="enable-background:new 0 0 612 792;" xml:space="preserve">
<style type="text/css">
	.Graphic_x0020_Style{fill:none;}
	.st0{stroke:#000000;stroke-width:5;stroke-miterlimit:10;}
</style>
<g id="Layer_2_1_">
</g>
<g id="Layer_1">
	<g>
		<polygon class="st0" points="536.7,396.8 519,414.5 501.3,432.2 483.6,449.9 465.9,467.6 448.1,485.3 448.1,485.3 448.1,520.7 
			412.7,485.3 430.4,467.6 448.1,450 465.9,432.2 483.6,414.5 501.3,396.8 430.4,325.9 412.7,308.2 395,290.5 377.3,272.8 
			359.6,255.1 341.9,237.4 324.2,219.7 306.5,201.9 235.6,272.8 217.9,255.1 235.6,237.4 253.3,219.7 271,201.9 288.7,184.2 
			306.5,166.5 324.2,184.2 341.9,201.9 359.6,219.6 377.3,237.4 395,255.1 412.7,272.8 430.4,290.5 448.1,308.1 448.1,308.3 
			448.1,308.2 465.9,325.9 483.6,343.6 501.3,361.3 		"/>
		<g>
			<polygon class="st0" points="75.3,402.5 92.8,384.6 110.3,366.7 127.7,348.7 145.2,330.8 162.7,312.9 162.8,312.9 162.4,277.5 
				198.1,312.4 180.7,330.3 163.2,348.2 145.7,366.2 128.2,384.1 110.7,402.1 182.5,472 200.4,489.5 218.3,507 236.3,524.5 
				254.2,542 272.1,559.5 290.1,577 308,594.5 377.9,522.7 395.9,540.2 378.4,558.1 360.9,576.1 343.4,594 325.9,611.9 308.4,629.9 
				290.5,612.4 272.6,594.9 254.6,577.4 236.7,559.9 218.8,542.4 200.8,525 182.9,507.5 165,490.1 165,489.9 165,490 147,472.5 
				129.1,455 111.2,437.5 			"/>
		</g>
	</g>
	<g id="Layer_2">
		<g>
			<polygon points="434.9,554.8 291.2,385.7 289.3,401.2 204.2,306.3 186.1,228.7 280.9,361.1 282.9,323.3 			"/>
			<line x1="225.7" y1="362.7" x2="225.7" y2="362.7"/>
			<line x1="225.8" y1="362.9" x2="225.7" y2="362.7"/>
		</g>
	</g>
</g>
</svg>
